<svg width="1603" height="1409" viewBox="0 0 1603 1409" fill="none" xmlns="http://www.w3.org/2000/svg">
<path d="M477.894 1401.49C476.766 1404.73 479.179 1408.12 482.618 1408.12H1126.63C1128.77 1408.12 1130.68 1406.76 1131.36 1404.73L1600.76 18.4569C1601.86 15.215 1599.45 11.8533 1596.03 11.8533H940.848C938.667 11.8533 936.737 13.267 936.08 15.3466L702.19 755.429L477.894 1401.49Z" fill="#BF40FF"/>
<path d="M2.59015 7.87471C1.31369 3.99394 4.20444 0 8.28975 0H651.73C655.138 0 658.172 2.1592 659.289 5.37928L971.484 905.798C975.794 918.228 969.733 931.872 957.62 937.006L895.215 963.457L820.97 981.637C808.23 984.756 795.245 977.499 791.227 965.014L710.577 714.441H263.945C246.67 714.441 231.346 703.35 225.948 686.939L2.59015 7.87471Z" fill="url(#paint0_linear_716_6583)"/>
<path d="M711.543 713.137L793.536 941.128C795.878 947.64 801.421 952.474 808.191 953.909L839.265 960.495L853.891 964.923C857.178 965.918 860.594 966.424 864.029 966.424L881.229 966.424L892.419 964.941L898.014 964.2L903.609 963.459L491.996 1355.48L526.179 1251.41L711.543 713.137Z" fill="#A800FC"/>
<defs>
<linearGradient id="paint0_linear_716_6583" x1="492.368" y1="984.209" x2="492.368" y2="-1.45021e-05" gradientUnits="userSpaceOnUse">
<stop stop-color="#494FFF"/>
<stop offset="0.504808" stop-color="#3F73FE"/>
<stop offset="1" stop-color="#000EFF"/>
</linearGradient>
</defs>
</svg>
